<svg fill="#000000" role="img" viewBox="0 0 24 24" xmlns="http://www.w3.org/2000/svg"><title>AirPods</title><path d="M3.277 2.67C3.277 1.195 4.473 0 5.948 0c1.474 0 2.671 1.196 2.671 2.67v7.407c.842.84 1.306 1.975 1.306 3.173 0 2.475-2.013 4.488-4.488 4.488-2.476 0-4.489-2.013-4.489-4.488 0-1.198.464-2.333 1.307-3.173zm2.671-1.477a1.476 1.476 0 0 0-1.477 1.477v7.829l-.222.168a3.296 3.296 0 0 0-1.296 2.583 3.296 3.296 0 0 0 3.295 3.295A3.296 3.296 0 0 0 9.244 13.25c0-.989-.416-1.929-1.144-2.587l-.152-.136zM18.052 0c1.475 0 2.671 1.196 2.671 2.67v7.407c.843.84 1.307 1.975 1.307 3.173 0 2.475-2.013 4.488-4.489 4.488-2.475 0-4.488-2.013-4.488-4.488 0-1.198.464-2.333 1.306-3.173V2.67C14.359 1.195 15.556 0 18.052 0zm0 1.193a1.476 1.476 0 0 0-1.477 1.477v7.829l-.222.168a3.296 3.296 0 0 0-1.296 2.583 3.296 3.296 0 0 0 3.295 3.295 3.296 3.296 0 0 0 3.296-3.295 3.296 3.296 0 0 0-1.145-2.587l-.151-.136V2.67A1.477 1.477 0 0 0 18.052 1.193z"/></svg>